<?xml version="1.0" encoding="utf-8"?>
<!-- Generator: Adobe Illustrator 23.0.2, SVG Export Plug-In . SVG Version: 6.00 Build 0)  -->
<svg version="1.1" id="Layer_1" xmlns="http://www.w3.org/2000/svg" xmlns:xlink="http://www.w3.org/1999/xlink" x="0px" y="0px"
	 viewBox="0 0 750 350" style="enable-background:new 0 0 750 350;" xml:space="preserve">
<style type="text/css">
	.st0{fill:none;stroke:#000000;stroke-miterlimit:10;}
</style>
<g>
	<rect x="443.17" y="48.24" class="st0" width="52.64" height="225.27"/>
	<line class="st0" x1="443.17" y1="235.97" x2="495.8" y2="235.97"/>
	<line class="st0" x1="443.17" y1="198.42" x2="495.8" y2="198.42"/>
	<line class="st0" x1="443.17" y1="160.88" x2="495.8" y2="160.88"/>
	<line class="st0" x1="443.17" y1="123.33" x2="495.8" y2="123.33"/>
	<line class="st0" x1="443.17" y1="85.79" x2="495.8" y2="85.79"/>
</g>
<g>
	<rect x="4.14" y="48.24" class="st0" width="432.03" height="225.27"/>
	<line class="st0" x1="4.14" y1="235.97" x2="436.17" y2="235.97"/>
	<line class="st0" x1="4.14" y1="198.42" x2="436.17" y2="198.42"/>
	<line class="st0" x1="4.14" y1="160.88" x2="436.17" y2="160.88"/>
	<line class="st0" x1="4.14" y1="123.33" x2="436.17" y2="123.33"/>
	<line class="st0" x1="4.14" y1="85.79" x2="436.17" y2="85.79"/>
	<line class="st0" x1="382.17" y1="48.24" x2="382.17" y2="273.51"/>
	<line class="st0" x1="328.17" y1="48.24" x2="328.17" y2="273.51"/>
	<line class="st0" x1="274.16" y1="48.24" x2="274.16" y2="273.51"/>
	<line class="st0" x1="220.16" y1="48.24" x2="220.16" y2="273.51"/>
	<line class="st0" x1="166.15" y1="48.24" x2="166.15" y2="273.51"/>
	<line class="st0" x1="112.15" y1="48.24" x2="112.15" y2="273.51"/>
	<line class="st0" x1="58.15" y1="48.24" x2="58.15" y2="273.51"/>
</g>
<g>
	<path d="M210.9,306.64l4.68-7.15l-4.24-6.55h3.23l2.75,4.4l2.69-4.4h3.21l-4.26,6.65l4.68,7.05h-3.34l-3.04-4.74l-3.05,4.74H210.9z
		"/>
</g>
<g>
	<path d="M462.81,290.09h2.79l2.37,7.05l2.32-7.05h2.72l-3.5,9.55l-0.63,1.73c-0.23,0.58-0.45,1.02-0.66,1.33
		c-0.21,0.31-0.45,0.55-0.72,0.74c-0.27,0.19-0.6,0.34-1,0.44c-0.39,0.11-0.84,0.16-1.34,0.16c-0.5,0-1-0.05-1.49-0.16l-0.23-2.06
		c0.41,0.08,0.78,0.12,1.11,0.12c0.61,0,1.06-0.18,1.36-0.54c0.29-0.36,0.52-0.82,0.67-1.37L462.81,290.09z"/>
	<path d="M467.15,322.98V311.6h-4.07v-2.32h10.89v2.32h-4.06v11.38H467.15z"/>
	<path d="M476.28,316.09l-2.38-0.43c0.27-0.96,0.73-1.67,1.38-2.13s1.63-0.69,2.92-0.69c1.17,0,2.04,0.14,2.62,0.42
		c0.57,0.28,0.98,0.63,1.21,1.06s0.35,1.21,0.35,2.35l-0.03,3.07c0,0.87,0.04,1.52,0.13,1.93s0.24,0.86,0.47,1.33h-2.6
		c-0.07-0.17-0.15-0.43-0.25-0.78c-0.04-0.16-0.08-0.26-0.09-0.31c-0.45,0.44-0.93,0.76-1.44,0.98c-0.51,0.22-1.06,0.33-1.64,0.33
		c-1.02,0-1.83-0.28-2.42-0.83c-0.59-0.55-0.88-1.26-0.88-2.1c0-0.56,0.13-1.06,0.4-1.5c0.27-0.44,0.64-0.78,1.13-1.01
		c0.48-0.23,1.18-0.44,2.09-0.61c1.23-0.23,2.08-0.45,2.55-0.64v-0.26c0-0.5-0.12-0.87-0.37-1.08c-0.25-0.21-0.72-0.32-1.41-0.32
		c-0.47,0-0.83,0.09-1.09,0.28C476.66,315.3,476.45,315.63,476.28,316.09z M479.8,318.22c-0.34,0.11-0.87,0.25-1.6,0.4
		c-0.73,0.16-1.21,0.31-1.43,0.46c-0.34,0.24-0.51,0.55-0.51,0.92c0,0.37,0.14,0.69,0.41,0.95c0.27,0.27,0.62,0.4,1.05,0.4
		c0.47,0,0.93-0.16,1.36-0.47c0.32-0.24,0.53-0.53,0.63-0.87c0.07-0.22,0.1-0.65,0.1-1.28V318.22z"/>
	<path d="M487.48,322.98h-2.63v-9.93h2.44v1.41c0.42-0.67,0.79-1.11,1.13-1.32s0.71-0.32,1.14-0.32c0.6,0,1.17,0.17,1.73,0.5
		l-0.81,2.29c-0.44-0.29-0.85-0.43-1.23-0.43c-0.37,0-0.68,0.1-0.93,0.3c-0.26,0.2-0.46,0.57-0.6,1.1s-0.22,1.64-0.22,3.33V322.98z"
		/>
	<path d="M492.17,323.64l3,0.36c0.05,0.35,0.16,0.59,0.35,0.72c0.25,0.19,0.64,0.28,1.18,0.28c0.69,0,1.2-0.1,1.54-0.31
		c0.23-0.14,0.41-0.36,0.52-0.66c0.08-0.22,0.12-0.62,0.12-1.21v-1.45c-0.79,1.07-1.78,1.61-2.97,1.61c-1.33,0-2.39-0.56-3.17-1.69
		c-0.61-0.89-0.92-2-0.92-3.33c0-1.66,0.4-2.93,1.2-3.81c0.8-0.88,1.8-1.32,2.99-1.32c1.23,0,2.24,0.54,3.04,1.62v-1.39h2.46v8.91
		c0,1.17-0.1,2.05-0.29,2.63s-0.46,1.03-0.81,1.37c-0.35,0.33-0.82,0.59-1.4,0.78c-0.58,0.19-1.32,0.28-2.21,0.28
		c-1.68,0-2.88-0.29-3.58-0.86c-0.71-0.58-1.06-1.31-1.06-2.19C492.16,323.87,492.17,323.76,492.17,323.64z M494.52,317.82
		c0,1.05,0.2,1.82,0.61,2.31c0.41,0.49,0.91,0.73,1.51,0.73c0.64,0,1.18-0.25,1.63-0.75c0.44-0.5,0.66-1.24,0.66-2.23
		c0-1.03-0.21-1.79-0.64-2.29s-0.96-0.75-1.61-0.75c-0.63,0-1.15,0.24-1.56,0.73C494.72,316.07,494.52,316.81,494.52,317.82z"/>
	<path d="M509.85,319.83l2.62,0.44c-0.34,0.96-0.87,1.69-1.59,2.19c-0.73,0.5-1.63,0.75-2.72,0.75c-1.73,0-3-0.56-3.83-1.69
		c-0.65-0.9-0.98-2.04-0.98-3.42c0-1.64,0.43-2.93,1.29-3.86c0.86-0.93,1.95-1.4,3.26-1.4c1.48,0,2.64,0.49,3.5,1.46
		c0.85,0.98,1.26,2.47,1.22,4.48h-6.58c0.02,0.78,0.23,1.38,0.64,1.82s0.91,0.65,1.51,0.65c0.41,0,0.76-0.11,1.04-0.34
		C509.5,320.69,509.71,320.32,509.85,319.83z M510,317.17c-0.02-0.76-0.21-1.34-0.59-1.73s-0.83-0.59-1.36-0.59
		c-0.57,0-1.05,0.21-1.42,0.63c-0.37,0.42-0.56,0.98-0.55,1.7H510z"/>
	<path d="M519.3,313.06v2.09h-1.79v4c0,0.81,0.02,1.28,0.05,1.42c0.03,0.13,0.11,0.24,0.23,0.33c0.12,0.09,0.27,0.13,0.44,0.13
		c0.24,0,0.59-0.08,1.06-0.25l0.22,2.04c-0.61,0.26-1.3,0.39-2.07,0.39c-0.47,0-0.9-0.08-1.28-0.24c-0.38-0.16-0.66-0.37-0.84-0.62
		s-0.3-0.59-0.37-1.02c-0.06-0.3-0.08-0.92-0.08-1.85v-4.33h-1.21v-2.09h1.21v-1.97l2.63-1.53v3.5H519.3z"/>
	<path d="M464.06,332.25h5.06c1.14,0,2.01,0.09,2.61,0.26c0.8,0.24,1.49,0.66,2.06,1.26c0.57,0.6,1.01,1.34,1.31,2.22
		s0.45,1.95,0.45,3.24c0,1.13-0.14,2.1-0.42,2.92c-0.34,1-0.83,1.8-1.47,2.42c-0.48,0.47-1.13,0.83-1.94,1.09
		c-0.61,0.19-1.43,0.29-2.45,0.29h-5.21V332.25z M466.82,334.57v9.07h2.07c0.77,0,1.33-0.04,1.67-0.13c0.45-0.11,0.82-0.3,1.12-0.57
		c0.3-0.27,0.54-0.71,0.72-1.32c0.19-0.61,0.28-1.45,0.28-2.51c0-1.06-0.09-1.87-0.28-2.44c-0.19-0.57-0.45-1.01-0.79-1.33
		c-0.34-0.32-0.76-0.53-1.28-0.64c-0.39-0.09-1.14-0.13-2.27-0.13H466.82z"/>
	<path d="M483.62,342.79l2.62,0.44c-0.34,0.96-0.87,1.69-1.59,2.19c-0.73,0.5-1.63,0.75-2.72,0.75c-1.73,0-3-0.56-3.83-1.69
		c-0.65-0.9-0.98-2.04-0.98-3.42c0-1.64,0.43-2.93,1.29-3.86c0.86-0.93,1.95-1.4,3.26-1.4c1.48,0,2.64,0.49,3.5,1.46
		c0.85,0.98,1.26,2.47,1.22,4.48h-6.58c0.02,0.78,0.23,1.38,0.64,1.82s0.91,0.65,1.51,0.65c0.41,0,0.76-0.11,1.04-0.34
		C483.26,343.65,483.48,343.29,483.62,342.79z M483.77,340.14c-0.02-0.76-0.21-1.34-0.59-1.73s-0.83-0.59-1.36-0.59
		c-0.57,0-1.05,0.21-1.42,0.63c-0.37,0.42-0.56,0.98-0.55,1.7H483.77z"/>
	<path d="M488.44,336.03h2.45v1.46c0.32-0.5,0.75-0.9,1.29-1.22s1.14-0.47,1.8-0.47c1.15,0,2.13,0.45,2.93,1.36
		c0.8,0.9,1.21,2.16,1.21,3.78c0,1.66-0.41,2.95-1.21,3.87c-0.81,0.92-1.79,1.38-2.94,1.38c-0.55,0-1.05-0.11-1.49-0.33
		c-0.45-0.22-0.91-0.59-1.41-1.12v5h-2.63V336.03z M491.04,340.82c0,1.12,0.22,1.94,0.66,2.47c0.44,0.53,0.98,0.8,1.62,0.8
		c0.61,0,1.12-0.25,1.52-0.73c0.41-0.49,0.61-1.29,0.61-2.41c0-1.04-0.21-1.81-0.62-2.32c-0.42-0.5-0.94-0.76-1.55-0.76
		c-0.64,0-1.17,0.25-1.6,0.74C491.25,339.12,491.04,339.85,491.04,340.82z"/>
	<path d="M505.96,342.79l2.62,0.44c-0.34,0.96-0.87,1.69-1.59,2.19c-0.73,0.5-1.63,0.75-2.72,0.75c-1.73,0-3-0.56-3.83-1.69
		c-0.65-0.9-0.98-2.04-0.98-3.42c0-1.64,0.43-2.93,1.29-3.86s1.95-1.4,3.26-1.4c1.48,0,2.64,0.49,3.5,1.46
		c0.85,0.98,1.26,2.47,1.22,4.48h-6.58c0.02,0.78,0.23,1.38,0.63,1.82c0.41,0.43,0.91,0.65,1.51,0.65c0.41,0,0.76-0.11,1.04-0.34
		C505.6,343.65,505.81,343.29,505.96,342.79z M506.11,340.14c-0.02-0.76-0.21-1.34-0.59-1.73c-0.37-0.4-0.83-0.59-1.37-0.59
		c-0.57,0-1.05,0.21-1.42,0.63c-0.37,0.42-0.56,0.98-0.55,1.7H506.11z"/>
	<path d="M519.88,345.95h-2.63v-5.07c0-1.07-0.06-1.76-0.17-2.08c-0.11-0.31-0.29-0.56-0.55-0.73c-0.25-0.17-0.56-0.26-0.91-0.26
		c-0.46,0-0.86,0.12-1.22,0.37s-0.61,0.58-0.74,0.99c-0.13,0.41-0.2,1.17-0.2,2.28v4.5h-2.63v-9.93h2.44v1.46
		c0.87-1.12,1.96-1.68,3.27-1.68c0.58,0,1.11,0.11,1.59,0.31c0.48,0.21,0.84,0.47,1.09,0.8s0.42,0.69,0.51,1.1s0.15,1,0.15,1.77
		V345.95z"/>
	<path d="M531.65,345.95h-2.44v-1.46c-0.4,0.57-0.88,0.99-1.43,1.27c-0.55,0.28-1.11,0.42-1.67,0.42c-1.14,0-2.12-0.46-2.93-1.38
		s-1.22-2.2-1.22-3.85c0-1.68,0.4-2.96,1.19-3.84c0.79-0.88,1.79-1.31,3-1.31c1.11,0,2.07,0.46,2.88,1.38v-4.93h2.63V345.95z
		 M524.64,340.78c0,1.06,0.15,1.83,0.44,2.3c0.42,0.69,1.02,1.03,1.78,1.03c0.61,0,1.12-0.26,1.54-0.77
		c0.42-0.51,0.63-1.28,0.63-2.3c0-1.14-0.21-1.96-0.62-2.46c-0.41-0.5-0.94-0.75-1.58-0.75c-0.62,0-1.15,0.25-1.57,0.74
		C524.85,339.05,524.64,339.79,524.64,340.78z"/>
	<path d="M539.99,342.79l2.62,0.44c-0.34,0.96-0.87,1.69-1.59,2.19c-0.73,0.5-1.63,0.75-2.72,0.75c-1.73,0-3-0.56-3.83-1.69
		c-0.65-0.9-0.98-2.04-0.98-3.42c0-1.64,0.43-2.93,1.29-3.86c0.86-0.93,1.95-1.4,3.26-1.4c1.48,0,2.64,0.49,3.49,1.46
		c0.85,0.98,1.26,2.47,1.22,4.48h-6.58c0.02,0.78,0.23,1.38,0.64,1.82c0.4,0.43,0.91,0.65,1.51,0.65c0.41,0,0.76-0.11,1.04-0.34
		C539.63,343.65,539.84,343.29,539.99,342.79z M540.13,340.14c-0.02-0.76-0.21-1.34-0.59-1.73c-0.38-0.4-0.83-0.59-1.37-0.59
		c-0.57,0-1.05,0.21-1.42,0.63c-0.38,0.42-0.56,0.98-0.55,1.7H540.13z"/>
	<path d="M553.91,345.95h-2.63v-5.07c0-1.07-0.06-1.76-0.17-2.08s-0.29-0.56-0.55-0.73c-0.25-0.17-0.56-0.26-0.91-0.26
		c-0.46,0-0.86,0.12-1.22,0.37s-0.61,0.58-0.74,0.99c-0.13,0.41-0.2,1.17-0.2,2.28v4.5h-2.63v-9.93h2.44v1.46
		c0.87-1.12,1.96-1.68,3.27-1.68c0.58,0,1.11,0.11,1.59,0.31c0.48,0.21,0.84,0.47,1.09,0.8s0.42,0.69,0.51,1.1
		c0.1,0.41,0.15,1,0.15,1.77V345.95z"/>
	<path d="M561.13,336.03v2.09h-1.79v4c0,0.81,0.02,1.28,0.05,1.42c0.03,0.13,0.11,0.24,0.23,0.33c0.12,0.09,0.27,0.13,0.44,0.13
		c0.24,0,0.6-0.08,1.06-0.25l0.22,2.04c-0.61,0.26-1.3,0.39-2.08,0.39c-0.47,0-0.9-0.08-1.28-0.24c-0.38-0.16-0.66-0.37-0.84-0.62
		c-0.18-0.25-0.3-0.59-0.37-1.02c-0.06-0.3-0.08-0.92-0.08-1.85v-4.33h-1.21v-2.09h1.21v-1.97l2.64-1.53v3.5H561.13z"/>
	<path d="M571,345.95l-4-9.93h2.76l1.87,5.07l0.54,1.69c0.14-0.43,0.23-0.71,0.27-0.85c0.09-0.28,0.18-0.56,0.28-0.84l1.89-5.07h2.7
		l-3.95,9.93H571z"/>
	<path d="M580.87,339.06l-2.38-0.43c0.27-0.96,0.73-1.67,1.38-2.13s1.63-0.69,2.92-0.69c1.17,0,2.04,0.14,2.62,0.42
		c0.57,0.28,0.98,0.63,1.21,1.06c0.23,0.43,0.35,1.21,0.35,2.35l-0.03,3.07c0,0.87,0.04,1.52,0.13,1.93s0.24,0.86,0.47,1.33h-2.6
		c-0.07-0.17-0.15-0.43-0.25-0.78c-0.04-0.16-0.08-0.26-0.09-0.31c-0.45,0.44-0.93,0.76-1.44,0.98c-0.51,0.22-1.06,0.33-1.63,0.33
		c-1.02,0-1.83-0.28-2.42-0.83c-0.59-0.55-0.88-1.26-0.88-2.1c0-0.56,0.13-1.06,0.4-1.5c0.27-0.44,0.64-0.78,1.13-1.01
		s1.18-0.44,2.09-0.61c1.23-0.23,2.08-0.45,2.55-0.64v-0.26c0-0.5-0.12-0.87-0.38-1.08c-0.25-0.21-0.72-0.32-1.41-0.32
		c-0.47,0-0.83,0.09-1.09,0.28C581.25,338.27,581.04,338.59,580.87,339.06z M584.39,341.19c-0.34,0.11-0.87,0.25-1.6,0.4
		c-0.73,0.16-1.21,0.31-1.43,0.46c-0.34,0.24-0.51,0.55-0.51,0.92c0,0.37,0.14,0.69,0.41,0.95c0.27,0.27,0.62,0.4,1.05,0.4
		c0.47,0,0.92-0.16,1.35-0.47c0.32-0.24,0.53-0.53,0.63-0.87c0.07-0.22,0.1-0.65,0.1-1.28V341.19z"/>
	<path d="M592.07,345.95h-2.63v-9.93h2.44v1.41c0.42-0.67,0.79-1.11,1.13-1.32s0.71-0.32,1.14-0.32c0.6,0,1.17,0.17,1.73,0.5
		l-0.81,2.29c-0.44-0.29-0.85-0.43-1.23-0.43c-0.37,0-0.68,0.1-0.94,0.3c-0.26,0.2-0.46,0.57-0.6,1.1s-0.22,1.64-0.22,3.33V345.95z"
		/>
	<path d="M597.01,334.68v-2.43h2.62v2.43H597.01z M597.01,345.95v-9.93h2.62v9.93H597.01z"/>
	<path d="M604.29,339.06l-2.38-0.43c0.27-0.96,0.73-1.67,1.38-2.13s1.63-0.69,2.92-0.69c1.17,0,2.04,0.14,2.62,0.42
		s0.98,0.63,1.21,1.06c0.23,0.43,0.35,1.21,0.35,2.35l-0.03,3.07c0,0.87,0.04,1.52,0.13,1.93s0.24,0.86,0.47,1.33h-2.6
		c-0.07-0.17-0.15-0.43-0.25-0.78c-0.04-0.16-0.08-0.26-0.09-0.31c-0.45,0.44-0.93,0.76-1.44,0.98c-0.51,0.22-1.06,0.33-1.64,0.33
		c-1.02,0-1.83-0.28-2.42-0.83s-0.88-1.26-0.88-2.1c0-0.56,0.13-1.06,0.4-1.5c0.27-0.44,0.64-0.78,1.13-1.01
		c0.48-0.23,1.18-0.44,2.09-0.61c1.23-0.23,2.08-0.45,2.55-0.64v-0.26c0-0.5-0.12-0.87-0.37-1.08c-0.25-0.21-0.72-0.32-1.41-0.32
		c-0.47,0-0.83,0.09-1.09,0.28C604.66,338.27,604.45,338.59,604.29,339.06z M607.8,341.19c-0.34,0.11-0.87,0.25-1.6,0.4
		c-0.73,0.16-1.21,0.31-1.43,0.46c-0.34,0.24-0.51,0.55-0.51,0.92c0,0.37,0.14,0.69,0.41,0.95c0.27,0.27,0.62,0.4,1.05,0.4
		c0.47,0,0.92-0.16,1.35-0.47c0.32-0.24,0.53-0.53,0.63-0.87c0.07-0.22,0.1-0.65,0.1-1.28V341.19z"/>
	<path d="M612.86,345.95v-13.7h2.63v4.93c0.81-0.92,1.77-1.38,2.88-1.38c1.21,0,2.21,0.44,3,1.31c0.79,0.88,1.19,2.13,1.19,3.77
		c0,1.69-0.4,3-1.21,3.92c-0.81,0.92-1.79,1.37-2.94,1.37c-0.57,0-1.13-0.14-1.68-0.43c-0.55-0.28-1.03-0.7-1.43-1.26v1.46H612.86z
		 M615.46,340.78c0,1.03,0.16,1.79,0.49,2.28c0.46,0.7,1.06,1.05,1.81,1.05c0.58,0,1.07-0.25,1.48-0.74
		c0.41-0.5,0.61-1.28,0.61-2.34c0-1.13-0.21-1.95-0.62-2.45c-0.41-0.5-0.94-0.75-1.58-0.75c-0.63,0-1.15,0.24-1.57,0.73
		C615.67,339.04,615.46,339.78,615.46,340.78z"/>
	<path d="M624.66,345.95v-13.7h2.63v13.7H624.66z"/>
	<path d="M635.73,342.79l2.62,0.44c-0.34,0.96-0.87,1.69-1.59,2.19c-0.73,0.5-1.63,0.75-2.72,0.75c-1.73,0-3-0.56-3.83-1.69
		c-0.65-0.9-0.98-2.04-0.98-3.42c0-1.64,0.43-2.93,1.29-3.86c0.86-0.93,1.95-1.4,3.26-1.4c1.48,0,2.64,0.49,3.49,1.46
		c0.85,0.98,1.26,2.47,1.22,4.48h-6.58c0.02,0.78,0.23,1.38,0.64,1.82c0.4,0.43,0.91,0.65,1.51,0.65c0.41,0,0.76-0.11,1.04-0.34
		C635.37,343.65,635.58,343.29,635.73,342.79z M635.88,340.14c-0.02-0.76-0.21-1.34-0.59-1.73c-0.38-0.4-0.83-0.59-1.37-0.59
		c-0.57,0-1.05,0.21-1.42,0.63c-0.38,0.42-0.56,0.98-0.55,1.7H635.88z"/>
</g>
<g>
	<path d="M154.81,10.08l2.68,0.85c-0.41,1.5-1.1,2.61-2.05,3.33c-0.96,0.73-2.17,1.09-3.64,1.09c-1.82,0-3.31-0.62-4.49-1.86
		s-1.76-2.94-1.76-5.1c0-2.28,0.59-4.05,1.77-5.31s2.73-1.89,4.65-1.89c1.68,0,3.04,0.5,4.08,1.49c0.62,0.59,1.09,1.43,1.4,2.52
		l-2.74,0.65c-0.16-0.71-0.5-1.27-1.01-1.68c-0.51-0.41-1.14-0.62-1.87-0.62c-1.02,0-1.84,0.36-2.47,1.09s-0.95,1.91-0.95,3.54
		c0,1.73,0.31,2.97,0.93,3.7c0.62,0.74,1.43,1.1,2.43,1.1c0.74,0,1.37-0.23,1.9-0.7C154.2,11.82,154.58,11.08,154.81,10.08z"/>
	<path d="M159.24,10.01c0-0.87,0.21-1.72,0.64-2.53c0.43-0.82,1.04-1.44,1.83-1.87s1.67-0.65,2.64-0.65c1.5,0,2.73,0.49,3.69,1.46
		s1.44,2.21,1.44,3.7c0,1.5-0.48,2.75-1.45,3.73c-0.97,0.99-2.19,1.48-3.66,1.48c-0.91,0-1.78-0.21-2.6-0.62s-1.45-1.01-1.88-1.81
		C159.45,12.12,159.24,11.15,159.24,10.01z M161.93,10.15c0,0.98,0.23,1.74,0.7,2.26s1.04,0.79,1.73,0.79
		c0.69,0,1.26-0.26,1.72-0.79c0.46-0.52,0.7-1.28,0.7-2.28c0-0.97-0.23-1.72-0.7-2.24c-0.46-0.52-1.04-0.79-1.72-0.79
		c-0.69,0-1.26,0.26-1.73,0.79S161.93,9.17,161.93,10.15z"/>
	<path d="M171.54,15.12V1.41h2.63v13.7H171.54z"/>
	<path d="M183.39,15.12v-1.49c-0.36,0.53-0.84,0.95-1.43,1.25c-0.59,0.31-1.21,0.46-1.86,0.46c-0.67,0-1.26-0.15-1.79-0.44
		c-0.53-0.29-0.91-0.7-1.15-1.23c-0.24-0.53-0.35-1.26-0.35-2.2V5.19h2.63v4.56c0,1.4,0.05,2.25,0.15,2.57
		c0.1,0.31,0.27,0.56,0.53,0.75c0.26,0.18,0.58,0.28,0.97,0.28c0.45,0,0.85-0.12,1.21-0.37c0.36-0.25,0.6-0.55,0.73-0.92
		c0.13-0.36,0.2-1.26,0.2-2.68V5.19h2.63v9.93H183.39z"/>
	<path d="M188.35,5.19h2.42v1.35c0.87-1.05,1.9-1.58,3.09-1.58c0.64,0,1.19,0.13,1.65,0.39s0.85,0.66,1.15,1.19
		c0.44-0.53,0.91-0.93,1.41-1.19c0.5-0.26,1.04-0.39,1.62-0.39c0.73,0,1.35,0.15,1.85,0.44c0.5,0.3,0.88,0.73,1.13,1.3
		c0.18,0.42,0.27,1.11,0.27,2.06v6.35h-2.63V9.44c0-0.98-0.09-1.62-0.27-1.91c-0.24-0.37-0.62-0.56-1.12-0.56
		c-0.37,0-0.71,0.11-1.04,0.34c-0.32,0.22-0.56,0.55-0.7,0.99c-0.14,0.43-0.21,1.12-0.21,2.05v4.77h-2.63V9.68
		c0-0.97-0.05-1.59-0.14-1.87c-0.09-0.28-0.24-0.49-0.43-0.63c-0.2-0.14-0.46-0.21-0.8-0.21c-0.4,0-0.77,0.11-1.09,0.33
		c-0.32,0.22-0.56,0.53-0.7,0.94c-0.14,0.41-0.21,1.09-0.21,2.05v4.82h-2.63V5.19z"/>
	<path d="M214.59,15.12h-2.63v-5.07c0-1.07-0.06-1.76-0.17-2.08c-0.11-0.31-0.29-0.56-0.55-0.73c-0.25-0.17-0.56-0.26-0.91-0.26
		c-0.46,0-0.86,0.12-1.22,0.37c-0.36,0.25-0.61,0.58-0.74,0.99c-0.13,0.41-0.2,1.17-0.2,2.28v4.5h-2.63V5.19h2.44v1.46
		c0.87-1.12,1.96-1.68,3.27-1.68c0.58,0,1.11,0.1,1.59,0.31c0.48,0.21,0.84,0.48,1.09,0.8c0.25,0.32,0.42,0.69,0.51,1.1
		c0.1,0.41,0.15,1,0.15,1.77V15.12z"/>
	<path d="M216.33,12.28l2.64-0.4c0.11,0.51,0.34,0.9,0.68,1.16c0.34,0.27,0.82,0.4,1.44,0.4c0.68,0,1.19-0.12,1.53-0.37
		c0.23-0.17,0.35-0.41,0.35-0.7c0-0.2-0.06-0.36-0.19-0.5c-0.13-0.12-0.42-0.24-0.88-0.35c-2.12-0.47-3.46-0.89-4.03-1.28
		c-0.79-0.54-1.18-1.28-1.18-2.23c0-0.86,0.34-1.58,1.02-2.17c0.68-0.59,1.73-0.88,3.16-0.88c1.36,0,2.37,0.22,3.03,0.66
		c0.66,0.44,1.12,1.1,1.36,1.96l-2.48,0.46c-0.11-0.39-0.31-0.68-0.6-0.89s-0.72-0.31-1.27-0.31c-0.69,0-1.19,0.1-1.49,0.29
		c-0.2,0.14-0.3,0.31-0.3,0.53c0,0.19,0.09,0.35,0.26,0.48c0.24,0.17,1.05,0.42,2.45,0.74c1.4,0.32,2.38,0.71,2.93,1.17
		c0.55,0.47,0.82,1.12,0.82,1.95c0,0.91-0.38,1.69-1.14,2.35c-0.76,0.65-1.88,0.98-3.37,0.98c-1.35,0-2.42-0.27-3.21-0.82
		C217.09,13.97,216.57,13.22,216.33,12.28z"/>
	<path d="M232.64,7.49V5.08h9.58v2.41H232.64z M232.64,11.64V9.22h9.58v2.42H232.64z"/>
	<path d="M249.75,15.12V1.41h9.39v2.32h-6.63v3.24h5.72v2.32h-5.72v5.82H249.75z"/>
	<path d="M267.15,11.96l2.62,0.44c-0.34,0.96-0.87,1.69-1.59,2.19c-0.73,0.5-1.63,0.75-2.72,0.75c-1.73,0-3-0.56-3.83-1.69
		c-0.65-0.9-0.98-2.04-0.98-3.42c0-1.64,0.43-2.93,1.29-3.86c0.86-0.93,1.95-1.4,3.26-1.4c1.48,0,2.64,0.49,3.5,1.46
		s1.26,2.47,1.22,4.48h-6.58c0.02,0.78,0.23,1.38,0.64,1.82c0.41,0.43,0.91,0.65,1.51,0.65c0.41,0,0.76-0.11,1.04-0.34
		C266.8,12.82,267.01,12.46,267.15,11.96z M267.3,9.3c-0.02-0.76-0.21-1.34-0.59-1.73c-0.37-0.4-0.83-0.59-1.36-0.59
		c-0.57,0-1.05,0.21-1.42,0.63c-0.37,0.42-0.56,0.98-0.55,1.7H267.3z"/>
	<path d="M274.01,8.22l-2.38-0.43c0.27-0.96,0.73-1.67,1.38-2.13s1.63-0.69,2.92-0.69c1.17,0,2.04,0.14,2.62,0.42
		s0.98,0.63,1.21,1.06c0.23,0.43,0.35,1.21,0.35,2.35l-0.03,3.07c0,0.87,0.04,1.52,0.13,1.93c0.08,0.41,0.24,0.86,0.47,1.33h-2.6
		c-0.07-0.17-0.15-0.43-0.25-0.78c-0.04-0.16-0.08-0.26-0.09-0.31c-0.45,0.44-0.93,0.76-1.44,0.98c-0.51,0.22-1.06,0.33-1.64,0.33
		c-1.02,0-1.83-0.28-2.42-0.83s-0.88-1.26-0.88-2.1c0-0.56,0.13-1.06,0.4-1.5c0.27-0.44,0.64-0.78,1.13-1.01
		c0.48-0.23,1.18-0.44,2.09-0.61c1.23-0.23,2.08-0.45,2.55-0.64V8.38c0-0.5-0.12-0.86-0.37-1.08c-0.25-0.21-0.72-0.32-1.41-0.32
		c-0.47,0-0.83,0.09-1.09,0.28C274.39,7.43,274.18,7.76,274.01,8.22z M277.53,10.35c-0.34,0.11-0.87,0.25-1.6,0.4
		c-0.73,0.16-1.21,0.31-1.43,0.46c-0.34,0.24-0.51,0.55-0.51,0.93c0,0.37,0.14,0.69,0.41,0.95c0.27,0.27,0.62,0.4,1.05,0.4
		c0.47,0,0.93-0.16,1.35-0.47c0.32-0.24,0.53-0.53,0.63-0.87c0.07-0.22,0.1-0.65,0.1-1.28V10.35z"/>
	<path d="M287.25,5.19v2.09h-1.79v4c0,0.81,0.02,1.28,0.05,1.42c0.03,0.13,0.11,0.24,0.23,0.33c0.12,0.09,0.27,0.13,0.44,0.13
		c0.24,0,0.6-0.08,1.06-0.25l0.22,2.04c-0.61,0.26-1.3,0.39-2.07,0.39c-0.47,0-0.9-0.08-1.28-0.24c-0.38-0.16-0.66-0.36-0.84-0.62
		c-0.18-0.25-0.3-0.59-0.37-1.02c-0.06-0.31-0.08-0.92-0.08-1.85V7.28h-1.21V5.19h1.21V3.22l2.64-1.53v3.5H287.25z"/>
	<path d="M295.6,15.12v-1.49c-0.36,0.53-0.84,0.95-1.43,1.25c-0.59,0.31-1.21,0.46-1.86,0.46c-0.67,0-1.26-0.15-1.79-0.44
		c-0.53-0.29-0.91-0.7-1.15-1.23c-0.24-0.53-0.35-1.26-0.35-2.2V5.19h2.63v4.56c0,1.4,0.05,2.25,0.15,2.57
		c0.1,0.31,0.27,0.56,0.53,0.75c0.26,0.18,0.58,0.28,0.97,0.28c0.45,0,0.85-0.12,1.21-0.37c0.36-0.25,0.6-0.55,0.73-0.92
		c0.13-0.36,0.2-1.26,0.2-2.68V5.19h2.63v9.93H295.6z"/>
	<path d="M303.28,15.12h-2.63V5.19h2.44V6.6c0.42-0.67,0.79-1.11,1.13-1.32s0.71-0.32,1.14-0.32c0.6,0,1.17,0.17,1.73,0.5
		l-0.81,2.29c-0.44-0.29-0.85-0.43-1.23-0.43c-0.37,0-0.68,0.1-0.93,0.3c-0.26,0.2-0.46,0.57-0.6,1.1s-0.22,1.64-0.22,3.33V15.12z"
		/>
	<path d="M313.96,11.96l2.62,0.44c-0.34,0.96-0.87,1.69-1.59,2.19c-0.73,0.5-1.63,0.75-2.72,0.75c-1.73,0-3-0.56-3.83-1.69
		c-0.65-0.9-0.98-2.04-0.98-3.42c0-1.64,0.43-2.93,1.29-3.86c0.86-0.93,1.95-1.4,3.26-1.4c1.48,0,2.64,0.49,3.5,1.46
		s1.26,2.47,1.22,4.48h-6.58c0.02,0.78,0.23,1.38,0.64,1.82c0.41,0.43,0.91,0.65,1.51,0.65c0.41,0,0.76-0.11,1.04-0.34
		C313.6,12.82,313.82,12.46,313.96,11.96z M314.11,9.3c-0.02-0.76-0.21-1.34-0.59-1.73c-0.37-0.4-0.83-0.59-1.36-0.59
		c-0.57,0-1.05,0.21-1.42,0.63c-0.37,0.42-0.56,0.98-0.55,1.7H314.11z"/>
	<path d="M317.93,12.28l2.64-0.4c0.11,0.51,0.34,0.9,0.68,1.16c0.34,0.27,0.82,0.4,1.44,0.4c0.68,0,1.19-0.12,1.53-0.37
		c0.23-0.17,0.35-0.41,0.35-0.7c0-0.2-0.06-0.36-0.19-0.5c-0.13-0.12-0.42-0.24-0.88-0.35c-2.12-0.47-3.46-0.89-4.03-1.28
		c-0.79-0.54-1.18-1.28-1.18-2.23c0-0.86,0.34-1.58,1.02-2.17c0.68-0.59,1.73-0.88,3.16-0.88c1.36,0,2.37,0.22,3.03,0.66
		c0.66,0.44,1.12,1.1,1.36,1.96l-2.48,0.46c-0.11-0.39-0.31-0.68-0.6-0.89s-0.72-0.31-1.27-0.31c-0.69,0-1.19,0.1-1.49,0.29
		c-0.2,0.14-0.3,0.31-0.3,0.53c0,0.19,0.09,0.35,0.26,0.48c0.24,0.17,1.05,0.42,2.45,0.74c1.4,0.32,2.38,0.71,2.93,1.17
		c0.55,0.47,0.82,1.12,0.82,1.95c0,0.91-0.38,1.69-1.14,2.35c-0.76,0.65-1.88,0.98-3.37,0.98c-1.35,0-2.42-0.27-3.21-0.82
		C318.69,13.97,318.17,13.22,317.93,12.28z"/>
</g>
<g>
	<path d="M550.21,167.5v-13.7h5.82c1.46,0,2.53,0.12,3.19,0.37s1.2,0.68,1.59,1.31s0.6,1.35,0.6,2.16c0,1.03-0.3,1.88-0.91,2.55
		c-0.6,0.67-1.51,1.09-2.71,1.27c0.6,0.35,1.09,0.73,1.48,1.15c0.39,0.42,0.91,1.16,1.57,2.22l1.67,2.67h-3.31l-2-2.98
		c-0.71-1.07-1.2-1.74-1.46-2.01c-0.26-0.28-0.54-0.47-0.83-0.57c-0.29-0.1-0.76-0.15-1.39-0.15h-0.56v5.72H550.21z M552.98,159.6
		h2.05c1.33,0,2.16-0.06,2.49-0.17c0.33-0.11,0.59-0.31,0.78-0.58c0.19-0.27,0.28-0.62,0.28-1.03c0-0.46-0.12-0.83-0.37-1.12
		c-0.25-0.28-0.59-0.46-1.04-0.54c-0.22-0.03-0.9-0.05-2.02-0.05h-2.16V159.6z"/>
	<path d="M563.4,162.4c0-0.87,0.21-1.72,0.64-2.53c0.43-0.82,1.04-1.44,1.83-1.87c0.79-0.43,1.67-0.65,2.64-0.65
		c1.5,0,2.73,0.49,3.69,1.46c0.96,0.98,1.44,2.21,1.44,3.7c0,1.5-0.48,2.75-1.45,3.73c-0.97,0.99-2.19,1.48-3.66,1.48
		c-0.91,0-1.78-0.21-2.6-0.62s-1.45-1.01-1.88-1.81S563.4,163.54,563.4,162.4z M566.09,162.54c0,0.98,0.23,1.74,0.7,2.26
		c0.47,0.52,1.04,0.79,1.73,0.79s1.26-0.26,1.72-0.79c0.46-0.52,0.7-1.28,0.7-2.28c0-0.97-0.23-1.72-0.7-2.24
		c-0.46-0.52-1.04-0.79-1.72-0.79s-1.26,0.26-1.73,0.79C566.32,160.8,566.09,161.56,566.09,162.54z"/>
	<path d="M577.55,167.5l-3.14-9.93h2.55l1.86,6.5l1.71-6.5h2.53l1.65,6.5l1.9-6.5h2.59l-3.19,9.93h-2.52l-1.71-6.38l-1.68,6.38
		H577.55z"/>
	<path d="M589.66,164.67l2.63-0.4c0.11,0.51,0.34,0.9,0.68,1.16c0.34,0.27,0.82,0.4,1.44,0.4c0.68,0,1.19-0.12,1.53-0.37
		c0.23-0.17,0.35-0.41,0.35-0.7c0-0.2-0.06-0.36-0.19-0.5c-0.13-0.12-0.42-0.24-0.88-0.35c-2.12-0.47-3.46-0.89-4.03-1.28
		c-0.79-0.54-1.18-1.28-1.18-2.23c0-0.86,0.34-1.58,1.02-2.17c0.68-0.59,1.73-0.88,3.16-0.88c1.36,0,2.37,0.22,3.03,0.66
		s1.12,1.1,1.36,1.96l-2.48,0.46c-0.11-0.39-0.31-0.68-0.6-0.89c-0.3-0.21-0.72-0.31-1.27-0.31c-0.69,0-1.19,0.1-1.49,0.29
		c-0.2,0.14-0.3,0.31-0.3,0.53c0,0.19,0.09,0.35,0.26,0.48c0.24,0.17,1.05,0.42,2.45,0.74c1.4,0.32,2.38,0.71,2.93,1.17
		c0.55,0.47,0.82,1.12,0.82,1.95c0,0.91-0.38,1.69-1.14,2.35c-0.76,0.65-1.88,0.98-3.37,0.98c-1.35,0-2.42-0.27-3.21-0.82
		C590.42,166.36,589.9,165.61,589.66,164.67z"/>
	<path d="M605.97,159.88v-2.41h9.58v2.41H605.97z M605.97,164.03v-2.42h9.58v2.42H605.97z"/>
	<path d="M622.5,160.74c0-1.4,0.21-2.57,0.63-3.51c0.31-0.7,0.74-1.32,1.28-1.88c0.54-0.55,1.13-0.97,1.77-1.23
		c0.85-0.36,1.84-0.54,2.95-0.54c2.02,0,3.63,0.63,4.85,1.88c1.21,1.25,1.82,2.99,1.82,5.22c0,2.21-0.6,3.94-1.8,5.19
		c-1.2,1.25-2.81,1.87-4.82,1.87c-2.04,0-3.66-0.62-4.86-1.86S622.5,162.92,622.5,160.74z M625.35,160.64
		c0,1.55,0.36,2.73,1.08,3.53c0.72,0.8,1.62,1.2,2.73,1.2c1.1,0,2.01-0.4,2.71-1.19c0.71-0.79,1.06-1.99,1.06-3.58
		c0-1.57-0.34-2.74-1.03-3.51c-0.69-0.77-1.6-1.16-2.74-1.16s-2.06,0.39-2.76,1.17C625.7,157.89,625.35,159.07,625.35,160.64z"/>
	<path d="M637.82,167.5v-13.7h2.62v4.93c0.81-0.92,1.77-1.38,2.88-1.38c1.21,0,2.21,0.44,3,1.31c0.79,0.88,1.19,2.13,1.19,3.77
		c0,1.69-0.4,3-1.21,3.92c-0.81,0.92-1.79,1.37-2.94,1.37c-0.57,0-1.12-0.14-1.68-0.43c-0.55-0.28-1.03-0.7-1.42-1.26v1.46H637.82z
		 M640.43,162.33c0,1.03,0.16,1.79,0.49,2.28c0.45,0.7,1.06,1.05,1.81,1.05c0.58,0,1.07-0.25,1.48-0.74
		c0.41-0.5,0.61-1.28,0.61-2.34c0-1.13-0.21-1.95-0.62-2.45c-0.41-0.5-0.94-0.75-1.58-0.75c-0.63,0-1.15,0.24-1.57,0.73
		S640.43,161.33,640.43,162.33z"/>
	<path d="M648.7,164.67l2.63-0.4c0.11,0.51,0.34,0.9,0.68,1.16c0.34,0.27,0.82,0.4,1.44,0.4c0.68,0,1.19-0.12,1.53-0.37
		c0.23-0.17,0.35-0.41,0.35-0.7c0-0.2-0.06-0.36-0.19-0.5c-0.13-0.12-0.42-0.24-0.88-0.35c-2.12-0.47-3.46-0.89-4.03-1.28
		c-0.79-0.54-1.18-1.28-1.18-2.23c0-0.86,0.34-1.58,1.02-2.17c0.68-0.59,1.73-0.88,3.16-0.88c1.36,0,2.37,0.22,3.03,0.66
		c0.66,0.44,1.12,1.1,1.36,1.96l-2.48,0.46c-0.11-0.39-0.31-0.68-0.6-0.89s-0.72-0.31-1.27-0.31c-0.69,0-1.19,0.1-1.49,0.29
		c-0.2,0.14-0.3,0.31-0.3,0.53c0,0.19,0.09,0.35,0.26,0.48c0.24,0.17,1.05,0.42,2.45,0.74c1.4,0.32,2.38,0.71,2.93,1.17
		c0.55,0.47,0.82,1.12,0.82,1.95c0,0.91-0.38,1.69-1.14,2.35c-0.76,0.65-1.88,0.98-3.38,0.98c-1.35,0-2.42-0.27-3.21-0.82
		C649.46,166.36,648.94,165.61,648.7,164.67z"/>
	<path d="M666.02,164.34l2.62,0.44c-0.34,0.96-0.87,1.69-1.59,2.19s-1.63,0.75-2.72,0.75c-1.73,0-3-0.56-3.83-1.69
		c-0.65-0.9-0.98-2.04-0.98-3.42c0-1.64,0.43-2.93,1.29-3.86c0.86-0.93,1.95-1.4,3.26-1.4c1.48,0,2.64,0.49,3.49,1.46
		s1.26,2.47,1.22,4.48h-6.58c0.02,0.78,0.23,1.38,0.64,1.82c0.4,0.43,0.91,0.65,1.51,0.65c0.41,0,0.76-0.11,1.04-0.34
		C665.66,165.2,665.87,164.84,666.02,164.34z M666.17,161.69c-0.02-0.76-0.21-1.34-0.59-1.73c-0.38-0.4-0.83-0.59-1.37-0.59
		c-0.57,0-1.05,0.21-1.42,0.63c-0.38,0.42-0.56,0.98-0.55,1.7H666.17z"/>
	<path d="M673.43,167.5h-2.63v-9.93h2.44v1.41c0.42-0.67,0.79-1.11,1.13-1.32s0.71-0.32,1.14-0.32c0.6,0,1.17,0.17,1.73,0.5
		l-0.81,2.29c-0.44-0.29-0.85-0.43-1.23-0.43c-0.37,0-0.68,0.1-0.94,0.3s-0.46,0.57-0.6,1.1s-0.22,1.64-0.22,3.33V167.5z"/>
	<path d="M681.09,167.5l-4-9.93h2.76l1.87,5.07l0.54,1.69c0.14-0.43,0.23-0.71,0.27-0.85c0.09-0.28,0.18-0.56,0.28-0.84l1.89-5.07
		h2.7l-3.94,9.93H681.09z"/>
	<path d="M690.97,160.61l-2.38-0.43c0.27-0.96,0.73-1.67,1.38-2.13s1.63-0.69,2.92-0.69c1.17,0,2.04,0.14,2.62,0.42
		s0.98,0.63,1.21,1.06c0.23,0.43,0.35,1.21,0.35,2.35l-0.03,3.07c0,0.87,0.04,1.52,0.13,1.93c0.08,0.41,0.24,0.86,0.47,1.33h-2.6
		c-0.07-0.17-0.15-0.43-0.25-0.78c-0.04-0.16-0.07-0.26-0.09-0.31c-0.45,0.44-0.93,0.76-1.44,0.98c-0.51,0.22-1.06,0.33-1.64,0.33
		c-1.02,0-1.83-0.28-2.42-0.83s-0.88-1.26-0.88-2.1c0-0.56,0.13-1.06,0.4-1.5c0.27-0.44,0.64-0.78,1.13-1.01
		c0.48-0.23,1.18-0.44,2.09-0.61c1.23-0.23,2.08-0.45,2.55-0.64v-0.26c0-0.5-0.12-0.86-0.37-1.08s-0.72-0.32-1.41-0.32
		c-0.47,0-0.83,0.09-1.09,0.28C691.34,159.82,691.13,160.15,690.97,160.61z M694.48,162.74c-0.34,0.11-0.87,0.25-1.6,0.4
		c-0.73,0.16-1.21,0.31-1.43,0.46c-0.34,0.24-0.51,0.55-0.51,0.93c0,0.37,0.14,0.69,0.41,0.95c0.27,0.27,0.62,0.4,1.05,0.4
		c0.47,0,0.93-0.16,1.36-0.47c0.32-0.24,0.53-0.53,0.63-0.87c0.07-0.22,0.1-0.65,0.1-1.28V162.74z"/>
	<path d="M704.2,157.58v2.09h-1.79v4c0,0.81,0.02,1.28,0.05,1.42c0.03,0.13,0.11,0.24,0.23,0.33c0.12,0.09,0.27,0.13,0.44,0.13
		c0.24,0,0.6-0.08,1.06-0.25l0.22,2.04c-0.61,0.26-1.3,0.39-2.08,0.39c-0.47,0-0.9-0.08-1.28-0.24c-0.38-0.16-0.66-0.36-0.84-0.62
		c-0.18-0.25-0.3-0.59-0.37-1.02c-0.06-0.31-0.08-0.92-0.08-1.85v-4.33h-1.21v-2.09h1.21v-1.97l2.64-1.53v3.5H704.2z"/>
	<path d="M706.03,156.23v-2.43h2.62v2.43H706.03z M706.03,167.5v-9.93h2.62v9.93H706.03z"/>
	<path d="M710.74,162.4c0-0.87,0.21-1.72,0.64-2.53c0.43-0.82,1.04-1.44,1.83-1.87s1.67-0.65,2.64-0.65c1.5,0,2.73,0.49,3.69,1.46
		s1.44,2.21,1.44,3.7c0,1.5-0.48,2.75-1.45,3.73c-0.97,0.99-2.19,1.48-3.66,1.48c-0.91,0-1.78-0.21-2.6-0.62
		c-0.83-0.41-1.45-1.01-1.88-1.81C710.95,164.51,710.74,163.54,710.74,162.4z M713.43,162.54c0,0.98,0.23,1.74,0.7,2.26
		s1.04,0.79,1.73,0.79c0.68,0,1.26-0.26,1.72-0.79s0.7-1.28,0.7-2.28c0-0.97-0.23-1.72-0.7-2.24s-1.04-0.79-1.72-0.79
		c-0.69,0-1.26,0.26-1.73,0.79S713.43,161.56,713.43,162.54z"/>
	<path d="M732.06,167.5h-2.63v-5.07c0-1.07-0.06-1.76-0.17-2.08c-0.11-0.31-0.29-0.56-0.55-0.73c-0.25-0.17-0.56-0.26-0.91-0.26
		c-0.46,0-0.86,0.12-1.22,0.37c-0.36,0.25-0.61,0.58-0.74,0.99s-0.2,1.17-0.2,2.28v4.5h-2.63v-9.93h2.44v1.46
		c0.87-1.12,1.96-1.68,3.27-1.68c0.58,0,1.11,0.1,1.59,0.31c0.48,0.21,0.84,0.48,1.09,0.8c0.25,0.32,0.42,0.69,0.51,1.1
		c0.1,0.41,0.14,1,0.14,1.77V167.5z"/>
	<path d="M733.8,164.67l2.64-0.4c0.11,0.51,0.34,0.9,0.68,1.16c0.34,0.27,0.82,0.4,1.44,0.4c0.68,0,1.19-0.12,1.53-0.37
		c0.23-0.17,0.35-0.41,0.35-0.7c0-0.2-0.06-0.36-0.19-0.5c-0.13-0.12-0.42-0.24-0.88-0.35c-2.12-0.47-3.46-0.89-4.03-1.28
		c-0.79-0.54-1.18-1.28-1.18-2.23c0-0.86,0.34-1.58,1.02-2.17c0.68-0.59,1.73-0.88,3.16-0.88c1.36,0,2.37,0.22,3.03,0.66
		s1.12,1.1,1.37,1.96l-2.48,0.46c-0.11-0.39-0.31-0.68-0.6-0.89s-0.72-0.31-1.27-0.31c-0.69,0-1.19,0.1-1.49,0.29
		c-0.2,0.14-0.3,0.31-0.3,0.53c0,0.19,0.09,0.35,0.26,0.48c0.24,0.17,1.05,0.42,2.45,0.74c1.4,0.32,2.38,0.71,2.93,1.17
		c0.55,0.47,0.82,1.12,0.82,1.95c0,0.91-0.38,1.69-1.14,2.35c-0.76,0.65-1.88,0.98-3.37,0.98c-1.35,0-2.42-0.27-3.21-0.82
		C734.56,166.36,734.05,165.61,733.8,164.67z"/>
</g>
</svg>
